<?xml version="1.0" standalone="no"?><!DOCTYPE svg PUBLIC "-//W3C//DTD SVG 1.1//EN" "http://www.w3.org/Graphics/SVG/1.1/DTD/svg11.dtd"><svg t="1755678592519" class="icon" viewBox="0 0 1024 1024" version="1.1" xmlns="http://www.w3.org/2000/svg" p-id="2182" xmlns:xlink="http://www.w3.org/1999/xlink" width="200" height="200"><path d="M938.666667 714.666667c-11.946667 0-21.333333 9.386667-21.333334 21.333333v10.666667c0 35.413333-28.586667 64-64 64H170.666667c-35.413333 0-64-28.586667-64-64v-469.333334C106.666667 241.92 135.253333 213.333333 170.666667 213.333333h256c11.946667 0 21.333333-9.386667 21.333333-21.333333S438.613333 170.666667 426.666667 170.666667H170.666667a106.666667 106.666667 0 0 0-106.666667 106.666666v469.333334A106.666667 106.666667 0 0 0 170.666667 853.333333h682.666666a106.666667 106.666667 0 0 0 106.666667-106.666666v-10.666667c0-11.946667-9.386667-21.333333-21.333333-21.333333z" fill="#666666" p-id="2183"></path><path d="M213.333333 490.666667h170.666667c11.946667 0 21.333333-9.386667 21.333333-21.333334s-9.386667-21.333333-21.333333-21.333333H213.333333c-11.946667 0-21.333333 9.386667-21.333333 21.333333s9.386667 21.333333 21.333333 21.333334zM213.333333 661.333333h512c11.946667 0 21.333333-9.386667 21.333334-21.333333s-9.386667-21.333333-21.333334-21.333333H213.333333c-11.946667 0-21.333333 9.386667-21.333333 21.333333s9.386667 21.333333 21.333333 21.333333zM567.893333 527.786667C609.706667 489.813333 647.253333 469.333333 725.333333 469.333333c76.8 0 156.586667 51.626667 194.133334 125.44 3.84 7.253333 11.093333 11.52 19.2 11.52 3.413333 0 6.826667-0.853333 9.813333-2.133333 10.666667-5.546667 14.506667-18.346667 9.386667-28.586667a278.229333 278.229333 0 0 0-148.053334-132.266666c38.826667-27.306667 64.853333-72.106667 64.853334-123.306667C874.666667 237.653333 807.68 170.666667 725.333333 170.666667s-149.333333 66.986667-149.333333 149.333333c0 48.64 23.466667 91.306667 59.306667 118.613333-38.4 11.52-67.413333 31.573333-96.426667 57.6-8.533333 8.106667-9.386667 21.333333-1.28 30.293334 8.106667 8.533333 21.76 9.386667 30.293333 1.28zM618.666667 320a106.666667 106.666667 0 0 1 213.333333 0 106.666667 106.666667 0 0 1-213.333333 0z" fill="#666666" p-id="2184"></path></svg>