<?xml version="1.0" standalone="no"?><!DOCTYPE svg PUBLIC "-//W3C//DTD SVG 1.1//EN" "http://www.w3.org/Graphics/SVG/1.1/DTD/svg11.dtd"><svg t="1755508674567" class="icon" viewBox="0 0 1024 1024" version="1.1" xmlns="http://www.w3.org/2000/svg" p-id="1856" xmlns:xlink="http://www.w3.org/1999/xlink" width="200" height="200"><path d="M354.133333 896c-55.466667-17.066667-102.4-51.2-145.066666-89.6 17.066667-25.6 25.6-51.2 25.6-81.066667 0-81.066667-64-145.066667-145.066667-149.333333-4.266667-21.333333-8.533333-42.666667-8.533333-64 0-38.4 4.266667-72.533333 12.8-106.666667C170.666667 396.8 230.4 332.8 230.4 256c0-17.066667-4.266667-34.133333-8.533333-51.2C264.533333 170.666667 311.466667 145.066667 362.666667 128c25.6 42.666667 72.533333 64 123.733333 64s98.133333-25.6 123.733333-64c51.2 17.066667 98.133333 42.666667 140.8 81.066667-4.266667 17.066667-8.533333 34.133333-8.533333 51.2 0 76.8 59.733333 140.8 136.533333 149.333333 8.533333 34.133333 12.8 72.533333 12.8 106.666667 0 21.333333 0 38.4-4.266666 59.733333h42.666666c4.266667-21.333333 4.266667-38.4 4.266667-59.733333 0-46.933333-8.533333-89.6-21.333333-132.266667-4.266667-8.533333-12.8-17.066667-21.333334-17.066667-59.733333 0-106.666667-46.933333-106.666666-106.666666 0-17.066667 4.266667-34.133333 12.8-46.933334 4.266667-8.533333 0-17.066667-4.266667-25.6-51.2-46.933333-115.2-85.333333-183.466667-102.4-8.533333-4.266667-21.333333 0-25.6 8.533334-17.066667 34.133333-55.466667 59.733333-93.866666 59.733333-38.4 0-76.8-21.333333-93.866667-59.733333-8.533333-12.8-21.333333-17.066667-29.866667-12.8-68.266667 17.066667-132.266667 55.466667-183.466666 102.4-8.533333 8.533333-8.533333 17.066667-4.266667 25.6 4.266667 17.066667 8.533333 29.866667 8.533333 46.933333 0 59.733333-46.933333 106.666667-106.666666 106.666667-12.8 0-17.066667 4.266667-21.333334 17.066666-12.8 42.666667-21.333333 89.6-21.333333 132.266667 0 29.866667 4.266667 59.733333 8.533333 89.6 0 8.533333 12.8 17.066667 21.333334 17.066667h8.533333c59.733333 0 106.666667 46.933333 106.666667 106.666666 0 25.6-8.533333 51.2-25.6 68.266667-8.533333 8.533333-8.533333 21.333333 0 29.866667 55.466667 55.466667 119.466667 98.133333 196.266666 119.466666 17.066667 4.266667 29.866667-4.266667 29.866667-12.8 8.533333-34.133333 38.4-59.733333 68.266667-68.266666v-42.666667c-42.666667 4.266667-81.066667 34.133333-98.133334 76.8z" fill="#666666" p-id="1857"></path><path d="M358.4 512c0-68.266667 59.733333-128 128-128s128 59.733333 128 128c0 21.333333-4.266667 42.666667-17.066667 59.733333h46.933334c8.533333-17.066667 12.8-38.4 12.8-59.733333 0-93.866667-76.8-170.666667-170.666667-170.666667s-170.666667 76.8-170.666667 170.666667c0 81.066667 59.733333 153.6 136.533334 166.4v-42.666667c-51.2-12.8-93.866667-64-93.866667-123.733333z" fill="#666666" p-id="1858"></path><path d="M964.266667 610.133333H524.8c-12.8 0-21.333333 8.533333-21.333333 21.333334s8.533333 21.333333 21.333333 21.333333h439.466667c12.8 0 21.333333-8.533333 21.333333-21.333333s-8.533333-21.333333-21.333333-21.333334zM964.266667 733.866667H524.8c-12.8 0-21.333333 8.533333-21.333333 21.333333s8.533333 21.333333 21.333333 21.333333h439.466667c12.8 0 21.333333-8.533333 21.333333-21.333333s-8.533333-21.333333-21.333333-21.333333zM964.266667 861.866667H524.8c-12.8 0-21.333333 8.533333-21.333333 21.333333s8.533333 21.333333 21.333333 21.333333h439.466667c12.8 0 21.333333-8.533333 21.333333-21.333333s-8.533333-21.333333-21.333333-21.333333z" fill="#666666" p-id="1859"></path></svg>