<?xml version="1.0" standalone="no"?><!DOCTYPE svg PUBLIC "-//W3C//DTD SVG 1.1//EN" "http://www.w3.org/Graphics/SVG/1.1/DTD/svg11.dtd"><svg t="1756389149074" class="icon" viewBox="0 0 1024 1024" version="1.1" xmlns="http://www.w3.org/2000/svg" p-id="5207" xmlns:xlink="http://www.w3.org/1999/xlink" width="200" height="200"><path d="M255.89 128.17m36 0l632 0q36 0 36 36l0 0q0 36-36 36l-632 0q-36 0-36-36l0 0q0-36 36-36Z" p-id="5208"></path><path d="M108.25 468h573.93l-60.48-60.46a44 44 0 0 1 62.23-62.22l135.76 135.76a44 44 0 0 1 0 62.23L683.93 679.07a44 44 0 0 1-62.23-62.23L682.53 556H108.25a44 44 0 0 1-44-44 44 44 0 0 1 44-44zM923.89 823.83h-632a36 36 0 0 0-36 36 36 36 0 0 0 36 36h632a36 36 0 0 0 36-36 36 36 0 0 0-36-36z" p-id="5209"></path></svg>