<?xml version="1.0" standalone="no"?><!DOCTYPE svg PUBLIC "-//W3C//DTD SVG 1.1//EN" "http://www.w3.org/Graphics/SVG/1.1/DTD/svg11.dtd"><svg t="1755822289007" class="icon" viewBox="0 0 1024 1024" version="1.1" xmlns="http://www.w3.org/2000/svg" p-id="2982" xmlns:xlink="http://www.w3.org/1999/xlink" width="200" height="200"><path d="M512 960C264.96 960 64 759.04 64 512S264.96 64 512 64 960 264.96 960 512 759.04 960 512 960z m0-853.333333c-223.573333 0-405.333333 181.76-405.333333 405.333333s181.76 405.333333 405.333333 405.333333 405.333333-181.76 405.333333-405.333333-181.76-405.333333-405.333333-405.333333z" p-id="2983"></path><path d="M628.48 765.866667H395.52c-31.146667 0-56.32-25.173333-56.32-56.32V314.026667c0-31.146667 25.173333-56.32 56.32-56.32h232.533333c31.146667 0 56.32 25.173333 56.32 56.32v395.52c0.426667 31.146667-25.173333 56.32-55.893333 56.32zM395.52 300.8c-7.68 0-13.653333 5.973333-13.653333 13.653333v395.52c0 7.253333 5.973333 13.653333 13.653333 13.653334h232.533333c7.68 0 13.653333-5.973333 13.653334-13.653334V314.026667c0-7.68-5.973333-13.653333-13.653334-13.653334H395.52z" p-id="2984"></path><path d="M535.466667 370.346667h-46.506667c-11.946667 0-21.333333-9.386667-21.333333-21.333334s9.386667-21.333333 21.333333-21.333333h46.506667c11.946667 0 21.333333 9.386667 21.333333 21.333333s-9.813333 21.333333-21.333333 21.333334zM558.506667 696.32h-93.013334c-11.946667 0-21.333333-9.386667-21.333333-21.333333s9.386667-21.333333 21.333333-21.333334h93.013334c11.946667 0 21.333333 9.386667 21.333333 21.333334s-9.386667 21.333333-21.333333 21.333333z" p-id="2985"></path></svg>
