<?xml version="1.0" standalone="no"?><!DOCTYPE svg PUBLIC "-//W3C//DTD SVG 1.1//EN" "http://www.w3.org/Graphics/SVG/1.1/DTD/svg11.dtd"><svg t="1755678641538" class="icon" viewBox="0 0 1024 1024" version="1.1" xmlns="http://www.w3.org/2000/svg" p-id="2477" xmlns:xlink="http://www.w3.org/1999/xlink" width="200" height="200"><path d="M391.253333 459.946667H154.026667c-37.973333 0-68.693333-30.72-68.693334-68.693334V154.026667C85.333333 116.053333 116.053333 85.333333 154.026667 85.333333h237.226666c37.973333 0 68.693333 30.72 68.693334 68.693334v237.226666c0 37.973333-30.72 68.693333-68.693334 68.693334zM154.026667 128c-14.506667 0-26.026667 11.52-26.026667 26.026667v237.226666c0 14.08 11.52 26.026667 26.026667 26.026667h237.226666c14.506667 0 26.026667-11.52 26.026667-26.026667V154.026667c0-14.506667-11.946667-26.026667-26.026667-26.026667H154.026667zM391.253333 938.666667H154.026667C116.053333 938.666667 85.333333 907.946667 85.333333 869.973333v-237.226666c0-37.973333 30.72-68.693333 68.693334-68.693334h237.226666c37.973333 0 68.693333 30.72 68.693334 68.693334v237.226666c0 37.973333-30.72 68.693333-68.693334 68.693334z m-237.226666-331.946667c-14.506667 0-26.026667 11.946667-26.026667 26.026667v237.226666c0 14.506667 11.52 26.026667 26.026667 26.026667h237.226666c14.506667 0 26.026667-11.52 26.026667-26.026667v-237.226666c0-14.506667-11.52-26.026667-26.026667-26.026667H154.026667zM751.36 459.946667c-103.253333 0-187.306667-84.053333-187.306667-187.306667S648.106667 85.333333 751.36 85.333333 938.666667 169.386667 938.666667 272.64s-84.053333 187.306667-187.306667 187.306667z m0-331.946667c-79.786667 0-144.64 64.853333-144.64 144.64s64.853333 144.64 144.64 144.64S896 352.426667 896 272.64 831.146667 128 751.36 128zM869.973333 938.666667h-237.226666c-37.973333 0-68.693333-30.72-68.693334-68.693334v-237.226666c0-37.973333 30.72-68.693333 68.693334-68.693334h237.226666c37.973333 0 68.693333 30.72 68.693334 68.693334v237.226666c0 37.973333-30.72 68.693333-68.693334 68.693334z m-237.226666-331.946667c-14.506667 0-26.026667 11.52-26.026667 26.026667v237.226666c0 14.506667 11.52 26.026667 26.026667 26.026667h237.226666c14.506667 0 26.026667-11.52 26.026667-26.026667v-237.226666c0-14.506667-11.52-26.026667-26.026667-26.026667h-237.226666z" fill="#666666" p-id="2478"></path></svg>